<svg width="48" height="48" viewBox="0 0 48 48" fill="none" xmlns="http://www.w3.org/2000/svg">
<mask id="mask0_211_449" style="mask-type:alpha" maskUnits="userSpaceOnUse" x="0" y="0" width="48" height="48">
<rect width="48" height="48" fill="#D9D9D9"/>
</mask>
<g mask="url(#mask0_211_449)">
<path d="M9 42C8.175 42 7.46883 41.7062 6.8815 41.1185C6.29383 40.5312 6 39.825 6 39V9C6 8.175 6.29383 7.46867 6.8815 6.881C7.46883 6.29367 8.175 6 9 6H39C39.825 6 40.5313 6.29367 41.119 6.881C41.7063 7.46867 42 8.175 42 9V15.7H39V9H9V39H39V32.35H42V39C42 39.825 41.7063 40.5312 41.119 41.1185C40.5313 41.7062 39.825 42 39 42H9ZM26.9 33.35C25.8827 33.35 25.0117 32.9927 24.287 32.278C23.5623 31.563 23.2 30.7037 23.2 29.7V18.35C23.2 17.3463 23.5623 16.487 24.287 15.772C25.0117 15.0573 25.8827 14.7 26.9 14.7H40.4C41.4177 14.7 42.2887 15.0573 43.013 15.772C43.7377 16.487 44.1 17.3463 44.1 18.35V29.7C44.1 30.7037 43.7377 31.563 43.013 32.278C42.2887 32.9927 41.4177 33.35 40.4 33.35H26.9ZM41.1 30.35V17.7H26.2V30.35H41.1ZM32.612 27.2C33.504 27.2 34.2583 26.884 34.875 26.252C35.4917 25.62 35.8 24.8527 35.8 23.95C35.8 23.075 35.4833 22.3312 34.85 21.7185C34.2167 21.1062 33.4667 20.8 32.6 20.8C31.7333 20.8 30.9833 21.1062 30.35 21.7185C29.7167 22.3312 29.4 23.075 29.4 23.95C29.4 24.8527 29.7123 25.62 30.337 26.252C30.9613 26.884 31.7197 27.2 32.612 27.2Z" fill="#2F4F38"/>
</g>
</svg>
