<svg width="56" height="56" viewBox="0 0 56 56" fill="none" xmlns="http://www.w3.org/2000/svg">
<mask id="mask0_211_3639" style="mask-type:alpha" maskUnits="userSpaceOnUse" x="0" y="0" width="56" height="56">
<rect width="56" height="56" fill="#D9D9D9"/>
</mask>
<g mask="url(#mask0_211_3639)">
<path d="M26.25 48.4167V30.3917H25.0833C22.5944 30.3917 20.2514 29.9153 18.0542 28.9625C15.8569 28.0097 13.9028 26.6583 12.1917 24.9083C10.4806 23.1583 9.1875 21.1361 8.3125 18.8417C7.4375 16.5472 7 14.1556 7 11.6667V7H11.5687C13.9673 7 16.275 7.47639 18.4917 8.42917C20.7083 9.38194 22.6917 10.7333 24.4417 12.4833C25.725 13.8056 26.7847 15.2833 27.6208 16.9167C28.4569 18.55 29.05 20.2806 29.4 22.1083C29.6975 21.6456 30.0246 21.1993 30.3812 20.7696C30.7382 20.3399 31.1111 19.9111 31.5 19.4833C33.25 17.7333 35.2333 16.3819 37.45 15.4292C39.6667 14.4764 41.9936 14 44.4307 14H49V18.6667C49 21.1556 48.5337 23.5472 47.6012 25.8417C46.6686 28.1361 45.346 30.1583 43.6333 31.9083C41.8833 33.6583 39.9086 35 37.709 35.9333C35.5094 36.8667 33.2064 37.3333 30.8 37.3333H29.75V48.4167H26.25ZM26.3083 26.8333C26.3083 24.4611 25.9194 22.2542 25.1417 20.2125C24.3639 18.1708 23.2944 16.4403 21.9333 15.0208C20.5722 13.6014 18.9 12.4931 16.9167 11.6958C14.9333 10.8986 12.7944 10.5 10.5 10.5C10.5 12.95 10.8597 15.1958 11.5792 17.2375C12.2986 19.2792 13.3389 21.0194 14.7 22.4583C16.3333 24.2083 18.0931 25.375 19.9792 25.9583C21.8653 26.5417 23.975 26.8333 26.3083 26.8333ZM29.75 33.8333C32.0833 33.8333 34.2417 33.4542 36.225 32.6958C38.2083 31.9375 39.8806 30.8486 41.2417 29.4292C42.6028 28.0097 43.6528 26.2792 44.3917 24.2375C45.1306 22.1958 45.5 19.95 45.5 17.5C43.1667 17.5 41.0083 17.8986 39.025 18.6958C37.0417 19.4931 35.3694 20.5917 34.0083 21.9917C32.3361 23.7417 31.2083 25.5694 30.625 27.475C30.0417 29.3806 29.75 31.5 29.75 33.8333Z" fill="#228B22"/>
</g>
</svg>
