<svg width="27" height="24" viewBox="0 0 27 24" fill="none" xmlns="http://www.w3.org/2000/svg">
<path d="M13.1168 14H14.2001C15.3918 14 16.3668 13.1 16.3668 12V2H6.61676C4.99176 2 3.5726 2.82999 2.83594 4.04999" stroke="#285434" stroke-width="1.5" stroke-linecap="round" stroke-linejoin="round"/>
<path d="M2.28418 17C2.28418 18.66 3.73585 20 5.53418 20H6.61751C6.61751 18.9 7.59251 18 8.78418 18C9.97585 18 10.9508 18.9 10.9508 20H15.2842C15.2842 18.9 16.2592 18 17.4508 18C18.6425 18 19.6175 18.9 19.6175 20H20.7008C22.4992 20 23.9508 18.66 23.9508 17V14H20.7008C20.105 14 19.6175 13.55 19.6175 13V10C19.6175 9.45 20.105 9 20.7008 9H22.0983L20.2459 6.01001C19.8559 5.39001 19.1409 5 18.3609 5H16.3675V12C16.3675 13.1 15.3925 14 14.2008 14H13.1175" stroke="#285434" stroke-width="1.5" stroke-linecap="round" stroke-linejoin="round"/>
<path d="M8.78385 22C9.98047 22 10.9505 21.1046 10.9505 20C10.9505 18.8954 9.98047 18 8.78385 18C7.58724 18 6.61719 18.8954 6.61719 20C6.61719 21.1046 7.58724 22 8.78385 22Z" stroke="#285434" stroke-width="1.5" stroke-linecap="round" stroke-linejoin="round"/>
<path d="M17.4508 22C18.6475 22 19.6175 21.1046 19.6175 20C19.6175 18.8954 18.6475 18 17.4508 18C16.2542 18 15.2842 18.8954 15.2842 20C15.2842 21.1046 16.2542 22 17.4508 22Z" stroke="#285434" stroke-width="1.5" stroke-linecap="round" stroke-linejoin="round"/>
<path d="M23.9505 12V14H20.7005C20.1047 14 19.6172 13.55 19.6172 13V10C19.6172 9.45 20.1047 9 20.7005 9H22.098L23.9505 12Z" stroke="#285434" stroke-width="1.5" stroke-linecap="round" stroke-linejoin="round"/>
<path d="M2.28418 8H8.78418" stroke="#285434" stroke-width="1.5" stroke-linecap="round" stroke-linejoin="round"/>
<path d="M2.28418 11H6.61751" stroke="#285434" stroke-width="1.5" stroke-linecap="round" stroke-linejoin="round"/>
<path d="M2.28418 14H4.45085" stroke="#285434" stroke-width="1.5" stroke-linecap="round" stroke-linejoin="round"/>
</svg>
