<svg width="56" height="56" viewBox="0 0 56 56" fill="none" xmlns="http://www.w3.org/2000/svg">
<mask id="mask0_211_3652" style="mask-type:alpha" maskUnits="userSpaceOnUse" x="0" y="0" width="56" height="56">
<rect width="56" height="56" fill="#D9D9D9"/>
</mask>
<g mask="url(#mask0_211_3652)">
<path d="M28 52.5007C24.9667 49.8173 21.6514 47.7562 18.0542 46.3173C14.4569 44.8784 10.7722 44.159 7 44.159V19.134C10.6556 19.134 14.2819 19.9701 17.8792 21.6423C21.4764 23.3145 24.85 25.6479 28 28.6423C31.15 25.6479 34.5236 23.3145 38.1208 21.6423C41.7181 19.9701 45.3444 19.134 49 19.134V44.159C45.2278 44.159 41.5431 44.8784 37.9458 46.3173C34.3486 47.7562 31.0333 49.8173 28 52.5007ZM28 48.009C30.7611 46.0257 33.6097 44.4409 36.5458 43.2548C39.4819 42.0687 42.4667 41.3201 45.5 41.009V22.9257C42.8556 23.3534 40.0653 24.4132 37.1292 26.1048C34.1931 27.7965 31.15 30.1395 28 33.134C24.5778 29.984 21.4667 27.5923 18.6667 25.959C15.8667 24.3257 13.1444 23.3145 10.5 22.9257V41.009C13.5333 41.3201 16.5181 42.0687 19.4542 43.2548C22.3903 44.4409 25.2389 46.0257 28 48.009ZM28.175 20.3007C25.6472 20.3007 23.5181 19.4354 21.7875 17.7048C20.0569 15.9743 19.1917 13.8451 19.1917 11.3173C19.1917 8.78954 20.0569 6.66037 21.7875 4.92982C23.5181 3.19926 25.6472 2.33398 28.175 2.33398C30.7028 2.33398 32.8319 3.19926 34.5625 4.92982C36.2931 6.66037 37.1583 8.78954 37.1583 11.3173C37.1583 13.8451 36.2931 15.9743 34.5625 17.7048C32.8319 19.4354 30.7028 20.3007 28.175 20.3007ZM28.1843 16.8007C29.6948 16.8007 30.9847 16.2628 32.0542 15.1872C33.1236 14.1115 33.6583 12.8184 33.6583 11.308C33.6583 9.79754 33.1205 8.5076 32.0448 7.43815C30.9692 6.36871 29.6761 5.83398 28.1657 5.83398C26.6552 5.83398 25.3653 6.37182 24.2958 7.44748C23.2264 8.52315 22.6917 9.81621 22.6917 11.3267C22.6917 12.8371 23.2295 14.127 24.3052 15.1965C25.3808 16.2659 26.6739 16.8007 28.1843 16.8007Z" fill="#228B22"/>
</g>
</svg>
