<svg width="36" height="42" viewBox="0 0 36 42" fill="none" xmlns="http://www.w3.org/2000/svg">
<path d="M16.5 37.2996V21.8496L3 14.0496V29.4996L16.5 37.2996ZM19.5 37.2996L33 29.4996V13.9996L19.5 21.8496V37.2996ZM16.5 40.7496L1.5 32.0996C1.03333 31.8329 0.666667 31.4663 0.4 30.9996C0.133333 30.5329 0 30.0329 0 29.4996V12.4996C0 11.9663 0.133333 11.4663 0.4 10.9996C0.666667 10.5329 1.03333 10.1663 1.5 9.89961L16.5 1.24961C16.9667 0.982943 17.4667 0.849609 18 0.849609C18.5333 0.849609 19.0333 0.982943 19.5 1.24961L34.5 9.89961C34.9667 10.1663 35.3333 10.5329 35.6 10.9996C35.8667 11.4663 36 11.9663 36 12.4996V29.4996C36 30.0329 35.8667 30.5329 35.6 30.9996C35.3333 31.4663 34.9667 31.8329 34.5 32.0996L19.5 40.7496C19.0333 41.0163 18.5333 41.1496 18 41.1496C17.4667 41.1496 16.9667 41.0163 16.5 40.7496ZM26.2 14.4996L31.3 11.5496L18 3.84961L12.9 6.79961L26.2 14.4996ZM18 19.2996L23.2 16.2496L9.85 8.54961L4.65 11.5496L18 19.2996Z" fill="#2F4F38"/>
</svg>
