<svg width="24" height="25" viewBox="0 0 24 25" fill="none" xmlns="http://www.w3.org/2000/svg">
<path d="M7 23.5C6.45 23.5 5.97917 23.3042 5.5875 22.9125C5.19583 22.5208 5 22.05 5 21.5V3.5C5 2.95 5.19583 2.47917 5.5875 2.0875C5.97917 1.69583 6.45 1.5 7 1.5H17C17.55 1.5 18.0208 1.69583 18.4125 2.0875C18.8042 2.47917 19 2.95 19 3.5V21.5C19 22.05 18.8042 22.5208 18.4125 22.9125C18.0208 23.3042 17.55 23.5 17 23.5H7ZM7 18.5V21.5H17V18.5H7ZM12 21C12.2833 21 12.5208 20.9042 12.7125 20.7125C12.9042 20.5208 13 20.2833 13 20C13 19.7167 12.9042 19.4792 12.7125 19.2875C12.5208 19.0958 12.2833 19 12 19C11.7167 19 11.4792 19.0958 11.2875 19.2875C11.0958 19.4792 11 19.7167 11 20C11 20.2833 11.0958 20.5208 11.2875 20.7125C11.4792 20.9042 11.7167 21 12 21ZM7 16.5H17V6.5H7V16.5ZM7 4.5H17V3.5H7V4.5Z" fill="#228B22"/>
</svg>
