<svg width="21" height="17" viewBox="0 0 21 17" fill="none" xmlns="http://www.w3.org/2000/svg">
<path d="M0.225277 16.0942V11.5853C0.225277 10.305 0.47577 8.99691 0.976755 7.66095C1.47774 6.32499 2.13876 5.06557 2.95982 3.88268C3.78088 2.6998 4.67152 1.71175 5.63174 0.918521L9.55613 3.23558C8.77682 4.46021 8.13667 5.74051 7.63569 7.07647C7.14862 8.41243 6.90508 9.90147 6.90508 11.5436V16.0942H0.225277ZM10.7668 16.0942V11.5853C10.7668 10.305 11.0173 8.99691 11.5183 7.66095C12.0193 6.32499 12.6803 5.06557 13.5014 3.88268C14.3225 2.6998 15.2131 1.71175 16.1733 0.918521L20.0977 3.23558C19.3184 4.46021 18.6782 5.74051 18.1773 7.07647C17.6902 8.41243 17.4467 9.90147 17.4467 11.5436V16.0942H10.7668Z" fill="#050505"/>
</svg>
