<svg width="56" height="56" viewBox="0 0 56 56" fill="none" xmlns="http://www.w3.org/2000/svg">
<mask id="mask0_211_3632" style="mask-type:alpha" maskUnits="userSpaceOnUse" x="0" y="0" width="56" height="56">
<rect width="56" height="56" fill="#D9D9D9"/>
</mask>
<g mask="url(#mask0_211_3632)">
<path d="M36.518 24.9077C37.393 24.9077 38.1367 24.6014 38.7492 23.9889C39.3617 23.3764 39.668 22.6327 39.668 21.7577C39.668 20.8827 39.3617 20.1389 38.7492 19.5264C38.1367 18.9139 37.393 18.6077 36.518 18.6077C35.643 18.6077 34.8992 18.9139 34.2867 19.5264C33.6742 20.1389 33.368 20.8827 33.368 21.7577C33.368 22.6327 33.6742 23.3764 34.2867 23.9889C34.8992 24.6014 35.643 24.9077 36.518 24.9077ZM19.4846 24.9077C20.3596 24.9077 21.1034 24.6014 21.7159 23.9889C22.3284 23.3764 22.6346 22.6327 22.6346 21.7577C22.6346 20.8827 22.3284 20.1389 21.7159 19.5264C21.1034 18.9139 20.3596 18.6077 19.4846 18.6077C18.6096 18.6077 17.8659 18.9139 17.2534 19.5264C16.6409 20.1389 16.3346 20.8827 16.3346 21.7577C16.3346 22.6327 16.6409 23.3764 17.2534 23.9889C17.8659 24.6014 18.6096 24.9077 19.4846 24.9077ZM28.0013 40.7744C30.568 40.7744 32.9305 40.0841 35.0888 38.7035C37.2471 37.323 38.8124 35.4466 39.7846 33.0744H36.7513C35.8569 34.6299 34.6319 35.8257 33.0763 36.6619C31.5207 37.498 29.8388 37.916 28.0305 37.916C26.2221 37.916 24.5305 37.5077 22.9555 36.691C21.3805 35.8744 20.1652 34.6688 19.3096 33.0744H16.218C17.2291 35.4466 18.8041 37.323 20.943 38.7035C23.0819 40.0841 25.4346 40.7744 28.0013 40.7744ZM28.0013 51.3327C24.7735 51.3327 21.7402 50.7202 18.9013 49.4952C16.0624 48.2702 13.593 46.6077 11.493 44.5077C9.39297 42.4077 7.73047 39.9382 6.50547 37.0994C5.28047 34.2605 4.66797 31.2271 4.66797 27.9994C4.66797 24.7716 5.28047 21.7382 6.50547 18.8994C7.73047 16.0605 9.39297 13.591 11.493 11.491C13.593 9.39102 16.0624 7.72852 18.9013 6.50352C21.7402 5.27852 24.7735 4.66602 28.0013 4.66602C31.2291 4.66602 34.2624 5.27852 37.1013 6.50352C39.9402 7.72852 42.4096 9.39102 44.5096 11.491C46.6096 13.591 48.2721 16.0605 49.4971 18.8994C50.7221 21.7382 51.3346 24.7716 51.3346 27.9994C51.3346 31.2271 50.7221 34.2605 49.4971 37.0994C48.2721 39.9382 46.6096 42.4077 44.5096 44.5077C42.4096 46.6077 39.9402 48.2702 37.1013 49.4952C34.2624 50.7202 31.2291 51.3327 28.0013 51.3327ZM28.0013 47.8327C33.5383 47.8327 38.2281 45.9114 42.0707 42.0688C45.9133 38.2258 47.8346 33.536 47.8346 27.9994C47.8346 22.4624 45.9133 17.7725 42.0707 13.9299C38.2281 10.0873 33.5383 8.16602 28.0013 8.16602C22.4647 8.16602 17.7749 10.0873 13.9319 13.9299C10.0893 17.7725 8.16797 22.4624 8.16797 27.9994C8.16797 33.536 10.0893 38.2258 13.9319 42.0688C17.7749 45.9114 22.4647 47.8327 28.0013 47.8327Z" fill="#228B22"/>
</g>
</svg>
