<svg width="23" height="24" viewBox="0 0 23 24" fill="none" xmlns="http://www.w3.org/2000/svg">
<path d="M11.6316 19.3732L16.7169 22.8988C17.3727 23.3506 18.1799 22.6785 17.9882 21.8522L16.5151 15.5281C16.4753 15.3528 16.4816 15.1688 16.5334 14.9972C16.5851 14.8257 16.6802 14.6736 16.8077 14.5585L21.3683 10.4049C21.9636 9.86505 21.6609 8.7743 20.884 8.71922L14.931 8.30055C14.7686 8.29023 14.6124 8.22847 14.4816 8.12281C14.3508 8.01715 14.251 7.87218 14.1944 7.7056L11.9746 1.60186C11.9159 1.42547 11.8088 1.2731 11.668 1.16543C11.5273 1.05776 11.3595 1 11.1876 1C11.0157 1 10.848 1.05776 10.7072 1.16543C10.5664 1.2731 10.4594 1.42547 10.4006 1.60186L8.18084 7.7056C8.12427 7.87218 8.02448 8.01715 7.89368 8.12281C7.76287 8.22847 7.60671 8.29023 7.44428 8.30055L1.49124 8.71922C0.714323 8.7743 0.411626 9.86505 1.00693 10.4049L5.56756 14.5585C5.69503 14.6736 5.79013 14.8257 5.8419 14.9972C5.89367 15.1688 5.9 15.3528 5.86017 15.5281L4.49803 21.3894C4.26597 22.381 5.2346 23.1853 6.01152 22.6454L10.7437 19.3732C10.8764 19.2811 11.0304 19.2321 11.1876 19.2321C11.3449 19.2321 11.4989 19.2811 11.6316 19.3732Z" stroke="#FF9110" stroke-width="1.22463" stroke-linecap="round" stroke-linejoin="round"/>
</svg>
