<svg width="21" height="21" viewBox="0 0 21 21" fill="none" xmlns="http://www.w3.org/2000/svg">
<path d="M10.9578 16.9734L16.0431 20.2075C16.6989 20.6219 17.5061 20.0054 17.3144 19.2474L15.8413 13.4461C15.8014 13.2853 15.8078 13.1165 15.8595 12.9592C15.9113 12.8018 16.0064 12.6623 16.1339 12.5567L20.6945 8.74651C21.2898 8.25128 20.9871 7.25071 20.2102 7.20018L14.2572 6.81613C14.0947 6.80666 13.9386 6.75 13.8078 6.65308C13.677 6.55616 13.5772 6.42317 13.5206 6.27036L11.3008 0.671245C11.2421 0.509439 11.135 0.369664 10.9942 0.270893C10.8534 0.172122 10.6857 0.119141 10.5138 0.119141C10.3419 0.119141 10.1742 0.172122 10.0334 0.270893C9.8926 0.369664 9.78555 0.509439 9.72679 0.671245L7.50702 6.27036C7.45044 6.42317 7.35066 6.55616 7.21985 6.65308C7.08904 6.75 6.93288 6.80666 6.77045 6.81613L0.817417 7.20018C0.0404949 7.25071 -0.262202 8.25128 0.333102 8.74651L4.89373 12.5567C5.02121 12.6623 5.1163 12.8018 5.16807 12.9592C5.21984 13.1165 5.22617 13.2853 5.18634 13.4461L3.82421 18.8229C3.59214 19.7325 4.56077 20.4703 5.33769 19.9751L10.0699 16.9734C10.2026 16.8888 10.3566 16.844 10.5138 16.844C10.6711 16.844 10.8251 16.8888 10.9578 16.9734Z" fill="#FF9110"/>
</svg>
