<svg width="48" height="48" viewBox="0 0 48 48" fill="none" xmlns="http://www.w3.org/2000/svg">
<rect width="48" height="48" rx="12" fill="#228B22"/>
<path d="M36 17.3083C35.0972 17.7021 34.1424 17.9637 33.165 18.0853C34.195 17.4742 34.9651 16.5066 35.3295 15.3658C34.365 15.9378 33.3098 16.3406 32.2095 16.5568C31.5349 15.8365 30.6592 15.3357 29.6962 15.1195C28.7333 14.9033 27.7276 14.9817 26.8098 15.3445C25.892 15.7074 25.1045 16.3378 24.5496 17.154C23.9948 17.9702 23.6982 18.9344 23.6985 19.9213C23.6985 20.3113 23.7315 20.6863 23.8125 21.0433C21.8551 20.9473 19.94 20.4393 18.1925 19.5525C16.4449 18.6656 14.9041 17.4199 13.671 15.8968C13.0392 16.9796 12.8439 18.2625 13.1248 19.4842C13.4057 20.7059 14.1418 21.7747 15.183 22.4728C14.4041 22.4519 13.6417 22.2441 12.96 21.8668V21.9208C12.9613 23.0569 13.354 24.158 14.072 25.0385C14.79 25.919 15.7894 26.5253 16.902 26.7553C16.4811 26.8662 16.0473 26.9207 15.612 26.9173C15.2994 26.9229 14.9871 26.8947 14.6805 26.8333C14.9984 27.8098 15.6112 28.6638 16.4346 29.2776C17.2579 29.8915 18.2513 30.2349 19.278 30.2608C17.5364 31.6229 15.3885 32.3617 13.1775 32.3593C12.774 32.3593 12.387 32.3413 12 32.2918C14.2498 33.7416 16.8715 34.5085 19.548 34.4998C28.602 34.4998 33.552 26.9998 33.552 20.4988C33.552 20.2813 33.5445 20.0713 33.534 19.8628C34.5044 19.1683 35.3401 18.3026 36 17.3083Z" fill="white"/>
</svg>
